<svg xmlns="http://www.w3.org/2000/svg" xmlns:xlink="http://www.w3.org/1999/xlink" viewBox="0 0 66.92 65"><defs><linearGradient id="New_Gradient_Swatch_copy_2" x1="9.14" y1="46.72" x2="13.14" y2="46.72" gradientUnits="userSpaceOnUse"><stop offset="0" stop-color="#d0e8f8"/><stop offset="1" stop-color="#e1eef9"/></linearGradient><linearGradient id="New_Gradient_Swatch_copy_2-2" x1="19.14" y1="46.72" x2="23.14" y2="46.72" xlink:href="#New_Gradient_Swatch_copy_2"/><linearGradient id="New_Gradient_Swatch_copy_2-3" x1="29.14" y1="46.72" x2="33.14" y2="46.72" xlink:href="#New_Gradient_Swatch_copy_2"/><linearGradient id="New_Gradient_Swatch_copy_2-4" x1="9.14" y1="63" x2="13.14" y2="63" xlink:href="#New_Gradient_Swatch_copy_2"/><linearGradient id="New_Gradient_Swatch_copy_2-5" x1="19.14" y1="63" x2="23.14" y2="63" xlink:href="#New_Gradient_Swatch_copy_2"/><linearGradient id="New_Gradient_Swatch_copy_2-6" x1="14.14" y1="55" x2="18.14" y2="55" xlink:href="#New_Gradient_Swatch_copy_2"/><linearGradient id="New_Gradient_Swatch_copy_2-7" x1="24.14" y1="55" x2="28.14" y2="55" xlink:href="#New_Gradient_Swatch_copy_2"/><linearGradient id="New_Gradient_Swatch_copy_2-8" x1="38.75" y1="39" x2="59.07" y2="18.67" xlink:href="#New_Gradient_Swatch_copy_2"/><linearGradient id="New_Gradient_Swatch_copy_2-9" x1="38.86" y1="48.55" x2="48.52" y2="48.55" xlink:href="#New_Gradient_Swatch_copy_2"/></defs><g id="Layer_2" data-name="Layer 2"><g id="Icons"><g id="Blizzard"><circle cx="11.14" cy="46.72" r="2" fill="url(#New_Gradient_Swatch_copy_2)"/><circle cx="21.14" cy="46.72" r="2" fill="url(#New_Gradient_Swatch_copy_2-2)"/><circle cx="31.14" cy="46.72" r="2" fill="url(#New_Gradient_Swatch_copy_2-3)"/><circle cx="11.14" cy="63" r="2" fill="url(#New_Gradient_Swatch_copy_2-4)"/><circle cx="21.14" cy="63" r="2" fill="url(#New_Gradient_Swatch_copy_2-5)"/><circle cx="16.14" cy="55" r="2" fill="url(#New_Gradient_Swatch_copy_2-6)"/><circle cx="26.14" cy="55" r="2" fill="url(#New_Gradient_Swatch_copy_2-7)"/><path d="M46,36.44a10.67,10.67,0,1,0,0-21.33h-.11a17,17,0,0,0-32.44-5.07H13.2a13.2,13.2,0,0,0,0,26.4" fill="#f6f6f6"/><path d="M60.22,36.44a6.7,6.7,0,1,0,0-13.39h-.07a10.69,10.69,0,0,0-20.37-3.18h-.16a8.29,8.29,0,0,0,0,16.58" fill="url(#New_Gradient_Swatch_copy_2-8)"/><circle cx="43.69" cy="48.55" r="4.83" fill="url(#New_Gradient_Swatch_copy_2-9)"/></g></g></g></svg>