<svg xmlns="http://www.w3.org/2000/svg" xmlns:xlink="http://www.w3.org/1999/xlink" viewBox="0 0 67.22 44.43"><defs><linearGradient id="New_Gradient_Swatch_copy" x1="15.62" y1="29.2" x2="56.57" y2="29.2" gradientUnits="userSpaceOnUse"><stop offset="0" stop-color="#00aeef"/><stop offset="1" stop-color="#00bdf2"/></linearGradient><linearGradient id="New_Gradient_Swatch_copy-2" x1="1.77" y1="20.37" x2="67.22" y2="20.37" xlink:href="#New_Gradient_Swatch_copy"/><linearGradient id="New_Gradient_Swatch_copy-3" x1="26.27" y1="5.14" x2="56.57" y2="5.14" xlink:href="#New_Gradient_Swatch_copy"/><linearGradient id="New_Gradient_Swatch_copy_2" y1="35.43" x2="4" y2="35.43" gradientUnits="userSpaceOnUse"><stop offset="0" stop-color="#d0e8f8"/><stop offset="1" stop-color="#e1eef9"/></linearGradient><linearGradient id="New_Gradient_Swatch_copy_2-2" x1="10" y1="35.43" x2="14" y2="35.43" xlink:href="#New_Gradient_Swatch_copy_2"/><linearGradient id="New_Gradient_Swatch_copy_2-3" x1="20" y1="35.43" x2="24" y2="35.43" xlink:href="#New_Gradient_Swatch_copy_2"/><linearGradient id="New_Gradient_Swatch_copy_2-4" x1="30" y1="35.43" x2="34" y2="35.43" xlink:href="#New_Gradient_Swatch_copy_2"/><linearGradient id="New_Gradient_Swatch_copy_2-5" x1="5" y1="42.43" x2="9" y2="42.43" xlink:href="#New_Gradient_Swatch_copy_2"/><linearGradient id="New_Gradient_Swatch_copy_2-6" x1="15" y1="42.43" x2="19" y2="42.43" xlink:href="#New_Gradient_Swatch_copy_2"/><linearGradient id="New_Gradient_Swatch_copy_2-7" x1="25" y1="42.43" x2="29" y2="42.43" xlink:href="#New_Gradient_Swatch_copy_2"/><linearGradient id="New_Gradient_Swatch_copy_2-8" x1="5" y1="28.43" x2="9" y2="28.43" xlink:href="#New_Gradient_Swatch_copy_2"/></defs><g id="Layer_2" data-name="Layer 2"><g id="Icons"><g id="Breezy_Snow" data-name="Breezy Snow"><path d="M51.43,34.34a5.15,5.15,0,0,1-5.15-5.14,5.06,5.06,0,0,1,.39-1.95H17.22a1.6,1.6,0,1,1,0-3.2H51.43a5.15,5.15,0,0,1,0,10.29Z" fill="url(#New_Gradient_Swatch_copy)"/><path d="M62.08,25.51a5.15,5.15,0,0,1-5.15-5.14,5.06,5.06,0,0,1,.39-1.95H3.37a1.6,1.6,0,1,1,0-3.2H62.08a5.15,5.15,0,0,1,0,10.29Z" fill="url(#New_Gradient_Swatch_copy-2)"/><path d="M51.43,0a5.15,5.15,0,0,0-5.15,5.14,5,5,0,0,0,.39,2H27.87a1.6,1.6,0,0,0,0,3.2H51.43A5.15,5.15,0,0,0,51.43,0Z" fill="url(#New_Gradient_Swatch_copy-3)"/><circle cx="2" cy="35.43" r="2" fill="url(#New_Gradient_Swatch_copy_2)"/><circle cx="12" cy="35.43" r="2" fill="url(#New_Gradient_Swatch_copy_2-2)"/><circle cx="22" cy="35.43" r="2" fill="url(#New_Gradient_Swatch_copy_2-3)"/><circle cx="32" cy="35.43" r="2" fill="url(#New_Gradient_Swatch_copy_2-4)"/><circle cx="7" cy="42.43" r="2" fill="url(#New_Gradient_Swatch_copy_2-5)"/><circle cx="17" cy="42.43" r="2" fill="url(#New_Gradient_Swatch_copy_2-6)"/><circle cx="27" cy="42.43" r="2" fill="url(#New_Gradient_Swatch_copy_2-7)"/><circle cx="7" cy="28.43" r="2" fill="url(#New_Gradient_Swatch_copy_2-8)"/></g></g></g></svg>