<svg xmlns="http://www.w3.org/2000/svg" xmlns:xlink="http://www.w3.org/1999/xlink" viewBox="0 0 66.92 59.97"><defs><linearGradient id="New_Gradient_Swatch_copy_2" x1="38.75" y1="39" x2="59.07" y2="18.67" gradientUnits="userSpaceOnUse"><stop offset="0" stop-color="#d0e8f8"/><stop offset="1" stop-color="#e1eef9"/></linearGradient><linearGradient id="New_Gradient_Swatch_copy" x1="7.64" y1="48.29" x2="14.53" y2="48.29" gradientUnits="userSpaceOnUse"><stop offset="0" stop-color="#00aeef"/><stop offset="1" stop-color="#00bdf2"/></linearGradient><linearGradient id="New_Gradient_Swatch_copy-2" x1="23.76" y1="48.29" x2="30.64" y2="48.29" xlink:href="#New_Gradient_Swatch_copy"/><linearGradient id="New_Gradient_Swatch_copy-3" x1="39.87" y1="48.29" x2="46.75" y2="48.29" xlink:href="#New_Gradient_Swatch_copy"/><linearGradient id="New_Gradient_Swatch_copy-4" x1="12.64" y1="55.47" x2="19.53" y2="55.47" xlink:href="#New_Gradient_Swatch_copy"/><linearGradient id="New_Gradient_Swatch_copy-5" x1="29.26" y1="55.47" x2="36.14" y2="55.47" xlink:href="#New_Gradient_Swatch_copy"/><linearGradient id="New_Gradient_Swatch_copy-6" x1="45.87" y1="55.47" x2="52.75" y2="55.47" xlink:href="#New_Gradient_Swatch_copy"/></defs><g id="Layer_2" data-name="Layer 2"><g id="Icons"><g id="Drizzle"><path d="M46,36.44a10.67,10.67,0,1,0,0-21.33h-.11a17,17,0,0,0-32.44-5.07H13.2a13.2,13.2,0,0,0,0,26.4" fill="#f6f6f6"/><path d="M60.22,36.44a6.7,6.7,0,1,0,0-13.39h-.07a10.69,10.69,0,0,0-20.37-3.18h-.16a8.29,8.29,0,0,0,0,16.58" fill="url(#New_Gradient_Swatch_copy_2)"/><path d="M9.64,52.79a2,2,0,0,1-1-.27,2,2,0,0,1-.73-2.73l2.89-5a2,2,0,1,1,3.46,2l-2.88,5A2,2,0,0,1,9.64,52.79Z" fill="url(#New_Gradient_Swatch_copy)"/><path d="M25.75,52.79a2,2,0,0,1-1-.27A2,2,0,0,1,24,49.79l2.89-5a2,2,0,1,1,3.46,2l-2.88,5A2,2,0,0,1,25.75,52.79Z" fill="url(#New_Gradient_Swatch_copy-2)"/><path d="M41.87,52.79a2,2,0,0,1-1.74-3l2.89-5a2,2,0,1,1,3.47,2l-2.89,5A2,2,0,0,1,41.87,52.79Z" fill="url(#New_Gradient_Swatch_copy-3)"/><path d="M14.64,60a2,2,0,0,1-1-.27A2,2,0,0,1,12.91,57l2.89-5a2,2,0,1,1,3.46,2l-2.88,5A2,2,0,0,1,14.64,60Z" fill="url(#New_Gradient_Swatch_copy-4)"/><path d="M31.25,60a2,2,0,0,1-1.73-3l2.89-5a2,2,0,1,1,3.47,2L33,59A2,2,0,0,1,31.25,60Z" fill="url(#New_Gradient_Swatch_copy-5)"/><path d="M47.87,60a2,2,0,0,1-1.74-3L49,52a2,2,0,1,1,3.47,2L49.6,59A2,2,0,0,1,47.87,60Z" fill="url(#New_Gradient_Swatch_copy-6)"/></g></g></g></svg>