<svg xmlns="http://www.w3.org/2000/svg" xmlns:xlink="http://www.w3.org/1999/xlink" viewBox="0 0 66.92 61.37"><defs><linearGradient id="New_Gradient_Swatch_copy_2" x1="38.75" y1="39" x2="59.07" y2="18.67" gradientUnits="userSpaceOnUse"><stop offset="0" stop-color="#d0e8f8"/><stop offset="1" stop-color="#e1eef9"/></linearGradient><linearGradient id="New_Gradient_Swatch_copy_2-2" x1="10.28" y1="49.55" x2="19.94" y2="49.55" xlink:href="#New_Gradient_Swatch_copy_2"/><linearGradient id="New_Gradient_Swatch_copy_2-3" x1="38.19" y1="49.55" x2="47.85" y2="49.55" xlink:href="#New_Gradient_Swatch_copy_2"/><linearGradient id="New_Gradient_Swatch_copy_2-4" x1="24.72" y1="56.54" x2="34.38" y2="56.54" xlink:href="#New_Gradient_Swatch_copy_2"/></defs><g id="Layer_2" data-name="Layer 2"><g id="Icons"><g id="Hail"><path d="M46,36.44a10.67,10.67,0,1,0,0-21.33h-.11a17,17,0,0,0-32.44-5.07H13.2a13.2,13.2,0,0,0,0,26.4" fill="#f6f6f6"/><path d="M60.22,36.44a6.7,6.7,0,1,0,0-13.39h-.07a10.69,10.69,0,0,0-20.37-3.18h-.16a8.29,8.29,0,0,0,0,16.58" fill="url(#New_Gradient_Swatch_copy_2)"/><circle cx="15.11" cy="49.55" r="4.83" fill="url(#New_Gradient_Swatch_copy_2-2)"/><circle cx="43.02" cy="49.55" r="4.83" fill="url(#New_Gradient_Swatch_copy_2-3)"/><circle cx="29.55" cy="56.54" r="4.83" fill="url(#New_Gradient_Swatch_copy_2-4)"/></g></g></g></svg>