<svg xmlns="http://www.w3.org/2000/svg" xmlns:xlink="http://www.w3.org/1999/xlink" viewBox="0 0 66.92 65.11"><defs><linearGradient id="New_Gradient_Swatch_copy_2" x1="38.75" y1="39" x2="59.07" y2="18.67" gradientUnits="userSpaceOnUse"><stop offset="0" stop-color="#d0e8f8"/><stop offset="1" stop-color="#e1eef9"/></linearGradient><linearGradient id="New_Gradient_Swatch_copy" x1="4.82" y1="51.41" x2="15.31" y2="51.41" gradientUnits="userSpaceOnUse"><stop offset="0" stop-color="#00aeef"/><stop offset="1" stop-color="#00bdf2"/></linearGradient><linearGradient id="New_Gradient_Swatch_copy-2" x1="11.96" y1="54.45" x2="25.96" y2="54.45" xlink:href="#New_Gradient_Swatch_copy"/><linearGradient id="New_Gradient_Swatch_copy-3" x1="36.74" y1="50.98" x2="46.74" y2="50.98" xlink:href="#New_Gradient_Swatch_copy"/><linearGradient id="New_Gradient_Swatch_copy-4" x1="24.85" y1="52.71" x2="36.85" y2="52.71" xlink:href="#New_Gradient_Swatch_copy"/></defs><g id="Layer_2" data-name="Layer 2"><g id="Icons"><g id="Heavy_Rain" data-name="Heavy Rain"><path d="M46,36.44a10.67,10.67,0,1,0,0-21.33h-.11a17,17,0,0,0-32.44-5.07H13.2a13.2,13.2,0,0,0,0,26.4" fill="#f6f6f6"/><path d="M60.22,36.44a6.7,6.7,0,1,0,0-13.39h-.07a10.69,10.69,0,0,0-20.37-3.18h-.16a8.29,8.29,0,0,0,0,16.58" fill="url(#New_Gradient_Swatch_copy_2)"/><path d="M6.81,59a1.87,1.87,0,0,1-1-.27A2,2,0,0,1,5.08,56l6.5-11.26a2,2,0,0,1,3.47,2L8.55,58A2,2,0,0,1,6.81,59Z" fill="url(#New_Gradient_Swatch_copy)"/><path d="M14,65.11a2,2,0,0,1-1-.27,2,2,0,0,1-.74-2.73l10-17.33a2,2,0,0,1,3.47,2l-10,17.33A2,2,0,0,1,14,65.11Z" fill="url(#New_Gradient_Swatch_copy-2)"/><path d="M38.73,58.18a2,2,0,0,1-1.73-3l6-10.4a2,2,0,0,1,3.47,2l-6,10.4A2,2,0,0,1,38.73,58.18Z" fill="url(#New_Gradient_Swatch_copy-3)"/><path d="M26.84,61.64a1.87,1.87,0,0,1-1-.27,2,2,0,0,1-.74-2.73l8-13.86a2,2,0,0,1,3.47,2l-8,13.86A2,2,0,0,1,26.84,61.64Z" fill="url(#New_Gradient_Swatch_copy-4)"/></g></g></g></svg>