<svg xmlns="http://www.w3.org/2000/svg" xmlns:xlink="http://www.w3.org/1999/xlink" viewBox="0 0 66.92 65.11"><defs><linearGradient id="New_Gradient_Swatch_copy_2" x1="38.75" y1="39" x2="59.07" y2="18.67" gradientUnits="userSpaceOnUse"><stop offset="0" stop-color="#d0e8f8"/><stop offset="1" stop-color="#e1eef9"/></linearGradient><linearGradient id="New_Gradient_Swatch_copy" x1="4.81" y1="51.41" x2="15.31" y2="51.41" gradientUnits="userSpaceOnUse"><stop offset="0" stop-color="#00aeef"/><stop offset="1" stop-color="#00bdf2"/></linearGradient><linearGradient id="New_Gradient_Swatch_copy-2" x1="11.95" y1="54.45" x2="25.96" y2="54.45" xlink:href="#New_Gradient_Swatch_copy"/><linearGradient id="New_Gradient_Swatch_copy_2-2" x1="33.19" y1="45.78" x2="37.19" y2="45.78" xlink:href="#New_Gradient_Swatch_copy_2"/><linearGradient id="New_Gradient_Swatch_copy_2-3" x1="43.19" y1="45.78" x2="47.19" y2="45.78" xlink:href="#New_Gradient_Swatch_copy_2"/><linearGradient id="New_Gradient_Swatch_copy_2-4" x1="24.19" y1="62.39" x2="28.19" y2="62.39" xlink:href="#New_Gradient_Swatch_copy_2"/><linearGradient id="New_Gradient_Swatch_copy_2-5" x1="29.19" y1="53.89" x2="33.19" y2="53.89" xlink:href="#New_Gradient_Swatch_copy_2"/><linearGradient id="New_Gradient_Swatch_copy_2-6" x1="39.19" y1="53.89" x2="43.19" y2="53.89" xlink:href="#New_Gradient_Swatch_copy_2"/></defs><g id="Layer_2" data-name="Layer 2"><g id="Icons"><g id="Sleet"><path d="M46,36.44a10.67,10.67,0,1,0,0-21.33h-.11a17,17,0,0,0-32.44-5.07H13.2a13.2,13.2,0,0,0,0,26.4" fill="#f6f6f6"/><path d="M60.22,36.44a6.7,6.7,0,1,0,0-13.39h-.07a10.69,10.69,0,0,0-20.37-3.18h-.16a8.29,8.29,0,0,0,0,16.58" fill="url(#New_Gradient_Swatch_copy_2)"/><path d="M6.81,59a1.87,1.87,0,0,1-1-.27A2,2,0,0,1,5.08,56l6.5-11.25a2,2,0,1,1,3.47,2L8.55,58A2,2,0,0,1,6.81,59Z" fill="url(#New_Gradient_Swatch_copy)"/><path d="M14,65.11a2,2,0,0,1-1-.27,2,2,0,0,1-.74-2.73l10-17.32a2,2,0,1,1,3.47,2l-10,17.32A2,2,0,0,1,14,65.11Z" fill="url(#New_Gradient_Swatch_copy-2)"/><circle cx="35.19" cy="45.78" r="2" fill="url(#New_Gradient_Swatch_copy_2-2)"/><circle cx="45.19" cy="45.78" r="2" fill="url(#New_Gradient_Swatch_copy_2-3)"/><circle cx="26.19" cy="62.39" r="2" fill="url(#New_Gradient_Swatch_copy_2-4)"/><circle cx="31.19" cy="53.89" r="2" fill="url(#New_Gradient_Swatch_copy_2-5)"/><circle cx="41.19" cy="53.89" r="2" fill="url(#New_Gradient_Swatch_copy_2-6)"/></g></g></g></svg>