<svg xmlns="http://www.w3.org/2000/svg" xmlns:xlink="http://www.w3.org/1999/xlink" viewBox="0 0 43 42.5"><defs><linearGradient id="New_Gradient_Swatch_copy_2" y1="2" x2="43" y2="2" gradientUnits="userSpaceOnUse"><stop offset="0" stop-color="#d0e8f8"/><stop offset="1" stop-color="#e1eef9"/></linearGradient><linearGradient id="New_Gradient_Swatch_copy_2-2" x1="8" y1="11.63" x2="33" y2="11.63" xlink:href="#New_Gradient_Swatch_copy_2"/><linearGradient id="New_Gradient_Swatch_copy_2-3" x1="14" y1="21.25" x2="36" y2="21.25" xlink:href="#New_Gradient_Swatch_copy_2"/><linearGradient id="New_Gradient_Swatch_copy_2-4" x1="14" y1="30.88" x2="30" y2="30.88" xlink:href="#New_Gradient_Swatch_copy_2"/><linearGradient id="New_Gradient_Swatch_copy_2-5" x1="15.5" y1="40.5" x2="20.5" y2="40.5" xlink:href="#New_Gradient_Swatch_copy_2"/></defs><g id="Layer_2" data-name="Layer 2"><g id="Icons"><g id="Tronado"><path d="M41,4H2A2,2,0,0,1,2,0H41a2,2,0,0,1,0,4Z" fill="url(#New_Gradient_Swatch_copy_2)"/><path d="M31,13.63H10a2,2,0,0,1,0-4H31a2,2,0,0,1,0,4Z" fill="url(#New_Gradient_Swatch_copy_2-2)"/><path d="M34,23.25H16a2,2,0,0,1,0-4H34a2,2,0,0,1,0,4Z" fill="url(#New_Gradient_Swatch_copy_2-3)"/><path d="M28,32.88H16a2,2,0,1,1,0-4H28a2,2,0,0,1,0,4Z" fill="url(#New_Gradient_Swatch_copy_2-4)"/><path d="M18.5,42.5h-1a2,2,0,0,1,0-4h1a2,2,0,0,1,0,4Z" fill="url(#New_Gradient_Swatch_copy_2-5)"/></g></g></g></svg>